<?xml version="1.0" standalone="no"?>
<!DOCTYPE svg PUBLIC "-//W3C//DTD SVG 20010904//EN"
 "http://www.w3.org/TR/2001/REC-SVG-20010904/DTD/svg10.dtd">
<svg version="1.0" xmlns="http://www.w3.org/2000/svg"
 width="300.000000pt" height="284.000000pt" viewBox="0 0 300.000000 284.000000"
 preserveAspectRatio="xMidYMid meet">
<metadata>
Created by potrace 1.10, written by Peter Selinger 2001-2011
</metadata>
<g transform="translate(0.000000,284.000000) scale(0.100000,-0.100000)"
fill="#000000" stroke="none">
<path d="M1200 1599 c-22 -9 -330 -306 -330 -319 0 -3 22 -3 49 -2 47 4 51 6
177 133 71 71 136 129 146 129 16 0 17 -12 14 -130 -1 -71 -1 -131 0 -133 2
-2 18 -1 36 1 l33 4 -3 151 c-2 128 -5 154 -19 165 -20 14 -68 15 -103 1z m78
-22 c6 -5 12 -16 12 -23 0 -24 -24 -15 -42 15 -15 28 -15 29 0 24 9 -3 23 -10
30 -16z"/>
<path d="M1360 1581 c0 -19 3 -22 12 -13 19 19 28 14 28 -18 0 -17 6 -48 12
-70 l13 -40 85 0 85 1 69 80 c37 44 65 83 62 87 -4 3 -37 -24 -74 -61 l-68
-67 -82 0 -82 0 0 64 0 65 -30 -1 c-25 -1 -30 -5 -30 -27z"/>
<path d="M1770 1590 c0 -18 3 -19 20 -10 11 6 20 15 20 20 0 6 -9 10 -20 10
-13 0 -20 -7 -20 -20z"/>
<path d="M1899 1603 c-47 -3 -61 -9 -84 -33 l-29 -30 88 0 88 0 -3 -132 -4
-132 35 0 35 0 3 90 c1 49 -1 107 -6 129 -9 37 -10 38 -19 17 -9 -23 -9 -23
-28 12 -11 19 -16 39 -11 43 4 4 51 10 103 13 65 3 98 9 101 18 4 12 -118 14
-269 5z m26 -22 c20 -2 20 -2 0 -11 -27 -12 -85 -12 -85 -1 0 12 19 18 45 16
11 -1 29 -3 40 -4z"/>
<path d="M1699 1543 c-31 -32 -61 -72 -68 -89 -12 -30 -14 -31 -59 -27 -26 3
-72 0 -102 -6 -90 -16 -94 -17 -96 -3 -1 6 -3 36 -5 65 -1 29 -5 -4 -9 -73 -3
-69 -6 -126 -5 -127 0 0 15 -3 34 -5 l34 -3 -2 68 -2 67 81 0 82 0 66 -64 c59
-56 73 -64 115 -68 26 -3 47 -2 47 1 0 4 -36 43 -81 86 l-80 78 56 57 c41 41
56 64 53 79 -3 19 -10 15 -59 -36z"/>
<path d="M2145 1561 c-6 -6 -35 -12 -65 -14 -51 -3 -49 -3 18 -5 58 -2 72 1
72 13 0 17 -11 20 -25 6z"/>
</g>
</svg>
