<?xml version="1.0" encoding="UTF-8"?>
<svg version="1.1" xmlns="http://www.w3.org/2000/svg" width="1238" height="1170">
<path d="M0 0 C408.54 0 817.08 0 1238 0 C1238 386.1 1238 772.2 1238 1170 C829.46 1170 420.92 1170 0 1170 C0 783.9 0 397.8 0 0 Z " fill="#FEFEFE" transform="translate(0,0)"/>
<path d="M0 0 C1.85364872 8.34963577 2.80449098 16.53034251 -1.92773438 24.07232666 C-7.87914079 31.43640069 -14.81987483 37.84260404 -21.78741455 44.22937012 C-24.66092278 46.8856678 -27.47386672 49.60459422 -30.29296875 52.31835938 C-35.80554552 57.60758826 -41.3798557 62.82495521 -47 68 C-43.15561489 72.59349756 -39.17750429 76.96818817 -34.93457031 81.19482422 C-34.36144608 81.76970078 -33.78832184 82.34457733 -33.1978302 82.93687439 C-31.32708047 84.81198005 -29.45275131 86.68345805 -27.578125 88.5546875 C-26.26855105 89.86493583 -24.95912551 91.1753325 -23.64984131 92.48587036 C-20.91808429 95.21909545 -18.18454211 97.95051895 -15.44970703 100.68066406 C-11.94011483 104.18453116 -8.43506916 107.69290677 -4.93132401 111.20261955 C-2.23432588 113.90322327 0.46503953 116.60145061 3.16513824 119.29895401 C4.45929669 120.59244464 5.75271069 121.88668054 7.04537201 123.18166733 C8.84522717 124.984052 10.64823901 126.78321726 12.45214844 128.58154297 C13.25476357 129.38719444 13.25476357 129.38719444 14.07359314 130.2091217 C16.77996073 132.94498954 16.77996073 132.94498954 20 135 C20 135.66 20 136.32 20 137 C14.14692822 137.19844802 8.29583206 137.343246 2.44018555 137.43945312 C0.4505806 137.479572 -1.53879012 137.53408374 -3.52758789 137.60351562 C-6.39528197 137.7010904 -9.25984956 137.74603859 -12.12890625 137.78125 C-13.01147598 137.82254028 -13.89404572 137.86383057 -14.80335999 137.90637207 C-18.415659 137.90896949 -20.96139617 137.84509881 -23.82806396 135.51252747 C-24.99262434 134.16668162 -26.11091573 132.77991382 -27.18925476 131.36404419 C-29.15442097 128.7983935 -31.28921143 126.57186771 -33.57080078 124.28393555 C-34.39500519 123.45335129 -35.21920959 122.62276703 -36.06838989 121.76701355 C-36.93527435 120.89901627 -37.80215881 120.03101898 -38.6953125 119.13671875 C-39.60578339 118.22291946 -40.51625427 117.30912018 -41.45431519 116.36763 C-43.36703674 114.44897039 -45.28176263 112.53233752 -47.19775391 110.61694336 C-49.6449347 108.16986479 -52.08512362 105.71593742 -54.52366829 103.26025677 C-56.86804564 100.90207121 -59.21961382 98.55110298 -61.5703125 96.19921875 C-62.87671188 94.88204109 -62.87671188 94.88204109 -64.20950317 93.53825378 C-65.02740326 92.72343033 -65.84530334 91.90860687 -66.68798828 91.0690918 C-67.40189728 90.35375778 -68.11580627 89.63842377 -68.85134888 88.90141296 C-73.35465547 84.91628693 -76.49756231 83.62623726 -82.53442383 83.56762695 C-83.83539505 83.54783279 -85.13636627 83.52803864 -86.47676086 83.50764465 C-87.88684952 83.50087586 -89.29693975 83.49442888 -90.70703125 83.48828125 C-92.15721655 83.47142657 -93.6073873 83.45327526 -95.05754089 83.43388367 C-98.86326555 83.3864627 -102.66893124 83.35660256 -106.47485352 83.33044434 C-111.04722253 83.29534573 -115.61936516 83.23835561 -120.19155121 83.18505096 C-127.12767179 83.10662959 -134.06349793 83.05595509 -141 83 C-141 100.82 -141 118.64 -141 137 C-150.57 137 -160.14 137 -170 137 C-170.02274435 122.94189513 -170.04102576 108.88380282 -170.05181217 94.82568359 C-170.05699347 88.29540311 -170.0640029 81.76513605 -170.07543945 75.23486328 C-170.08643961 68.91299308 -170.09231245 62.59113564 -170.09487724 56.26925659 C-170.09670106 53.87759195 -170.10026099 51.48592788 -170.10573006 49.0942688 C-170.13256708 36.85252849 -170.0359078 24.63204904 -169.55639648 12.3984375 C-169.51754113 11.36457916 -169.47868578 10.33072083 -169.43865299 9.26553345 C-169.3971786 8.32374237 -169.35570421 7.38195129 -169.31297302 6.41162109 C-169.25891879 5.16546524 -169.25891879 5.16546524 -169.20377254 3.89413452 C-169 2 -169 2 -168 1 C-159.42 1 -150.84 1 -142 1 C-141.67 18.16 -141.34 35.32 -141 53 C-129.59350571 52.93824551 -129.59350571 52.93824551 -118.1875 52.83984375 C-113.53287415 52.79156003 -108.87848479 52.74749644 -104.22363281 52.72900391 C-100.46915424 52.71381841 -96.71529586 52.67934059 -92.9610939 52.63169098 C-91.53148933 52.61689645 -90.1017962 52.60896009 -88.67211533 52.60811615 C-86.66395427 52.60573932 -84.65588103 52.57633413 -82.64794922 52.54589844 C-81.50655487 52.53701599 -80.36516052 52.52813354 -79.18917847 52.51898193 C-73.07822184 51.5245327 -69.31228404 47.56118134 -65.26171875 43.13964844 C-64.37218506 42.17895447 -63.48265137 41.2182605 -62.56616211 40.22845459 C-62.09838348 39.71999748 -61.63060486 39.21154037 -61.14865112 38.68767548 C-58.09417929 35.3883081 -54.97588121 32.14881812 -51.87181091 28.8962059 C-49.16466646 26.05233049 -46.48045615 23.19216175 -43.83789062 20.28808594 C-30.91624199 6.12447861 -20.65754139 -4.79766504 0 0 Z " fill="#5292DE" transform="translate(729,508)"/>
<path d="M0 0 C1.21558594 -0.020625 2.43117188 -0.04125 3.68359375 -0.0625 C11.9279346 -0.09846223 17.947998 0.45363511 24.4375 5.9375 C24.97761719 6.37449219 25.51773438 6.81148437 26.07421875 7.26171875 C31.8876131 14.15919596 32.31822977 20.49720688 32.20410156 29.17382812 C32.20468567 30.3454248 32.20526978 31.51702148 32.20587158 32.72412109 C32.20309633 36.57680416 32.17202885 40.42870293 32.140625 44.28125 C32.13316062 46.96025909 32.12727175 49.63922536 32.12347412 52.3182373 C32.11107658 58.63631335 32.07829922 64.95411023 32.03807616 71.27206373 C31.99325751 78.46917071 31.97134615 85.66629151 31.95129442 92.86350346 C31.90956323 107.65916422 31.83625164 122.45452571 31.75 137.25 C22.18 137.25 12.61 137.25 2.75 137.25 C2.75 101.61 2.75 65.97 2.75 29.25 C-8.872211 30.99107806 -8.872211 30.99107806 -17.25 37.25 C-17.88173126 37.83468489 -18.51346252 38.41936977 -19.16433716 39.02177238 C-21.21110397 40.97304479 -23.20453128 42.96804802 -25.19140625 44.98022461 C-25.94050262 45.73063522 -26.689599 46.48104584 -27.46139526 47.25419617 C-29.91641332 49.7156618 -32.36436763 52.18403138 -34.8125 54.65234375 C-36.53016716 56.37628966 -38.24835606 58.09971587 -39.96704102 59.82264709 C-44.47925308 64.34812273 -48.98585795 68.87913717 -53.49084473 73.4118042 C-60.69905163 80.66322271 -67.91400799 87.90790947 -75.1322937 95.1492939 C-77.64279182 97.66995459 -80.14981416 100.19403368 -82.65649414 102.7184906 C-84.20707546 104.27590539 -85.75776947 105.833208 -87.30859375 107.39038086 C-87.99662079 108.08514526 -88.68464783 108.77990967 -89.39352417 109.49572754 C-93.28650763 113.39770911 -97.28021707 117.07938247 -101.51635742 120.60787296 C-103.34138816 122.33656396 -104.60255075 124.09453053 -105.94140625 126.21484375 C-109.67925468 131.64570586 -113.57912399 136.35775905 -120.37927246 137.65673828 C-132.5624214 139.05769076 -145.05454626 138.11862206 -157.25 137.25 C-156.68538744 133.41329204 -155.03880234 131.66787661 -152.32904053 128.96827698 C-151.4850621 128.12017456 -150.64108368 127.27207214 -149.77153015 126.39826965 C-148.83855606 125.47608139 -147.90558197 124.55389313 -146.94433594 123.60375977 C-145.95659544 122.61686559 -144.96951528 121.62931013 -143.98304749 120.6411438 C-141.30151679 117.95875135 -138.6108256 115.28572016 -135.91842556 112.61424375 C-133.10067483 109.8152547 -130.2914246 107.0077605 -127.48126221 104.20115662 C-122.15251109 98.88173691 -116.81616171 93.57000765 -111.47704816 88.26099104 C-105.41993978 82.23730065 -99.37124063 76.20519695 -93.32328749 70.17231667 C-82.97894196 59.85403911 -72.62826121 49.54215373 -62.27058411 39.23725891 C-61.41532639 38.38633667 -60.56006866 37.53541443 -59.67889404 36.65870667 C-58.89871666 35.88269167 -58.11853928 35.10667667 -57.31472015 34.30714607 C-55.62286844 32.62150063 -53.93570745 30.93144155 -52.25128174 29.23838806 C-50.48329799 27.48179492 -48.68135474 25.88400327 -46.75 24.3125 C-44.50975799 22.42648429 -42.85170505 20.75213131 -41 18.4375 C-30.16625252 4.98382666 -16.61306281 0.06958351 0 0 Z " fill="#4883CB" transform="translate(515.25,506.75)"/>
<path d="M0 0 C1.31760818 -0.00116821 2.63521637 -0.00233643 3.99275208 -0.00354004 C7.59440165 -0.00583011 11.1939081 0.04110788 14.79506063 0.09705162 C18.56257267 0.1471559 22.33013711 0.15176867 26.09793091 0.16125488 C33.22743785 0.18609306 40.35596021 0.25170376 47.48503411 0.3320508 C55.60337994 0.42155566 63.72177349 0.46547713 71.8404901 0.50561428 C88.53632575 0.58917385 105.23117189 0.7298327 121.92626953 0.90820312 C121.76328369 1.84282883 121.60029785 2.77745453 121.43237305 3.74040222 C120.96501032 6.66571692 120.82498233 9.31638442 120.86376953 12.27148438 C120.87150391 13.24021484 120.87923828 14.20894531 120.88720703 15.20703125 C120.90009766 16.20154297 120.91298828 17.19605469 120.92626953 18.22070312 C120.95164831 20.21674426 120.97272556 22.21284638 120.98876953 24.20898438 C121.00037109 25.08723877 121.01197266 25.96549316 121.02392578 26.87036133 C120.92626953 28.90820312 120.92626953 28.90820312 119.92626953 29.90820312 C118.14635029 30.00190937 116.36270214 30.02564583 114.58032227 30.02172852 C112.84461975 30.02154724 112.84461975 30.02154724 111.07385254 30.0213623 C109.84823608 30.01624634 108.62261963 30.01113037 107.35986328 30.00585938 C106.24035278 30.00485229 105.12084229 30.00384521 103.96740723 30.00280762 C99.76618431 29.99755662 95.56497594 29.98359551 91.36376953 29.97070312 C77.28720703 29.93976562 77.28720703 29.93976562 62.92626953 29.90820312 C62.92626953 65.54820312 62.92626953 101.18820312 62.92626953 137.90820312 C53.02626953 137.90820312 43.12626953 137.90820312 32.92626953 137.90820312 C32.90331019 128.68208138 32.88512544 119.45597982 32.87445736 110.22983551 C32.86932694 105.94178676 32.86241852 101.65375921 32.85083008 97.36572266 C32.83963837 93.19645493 32.83391963 89.02720704 32.83139229 84.85792542 C32.829601 83.29903349 32.82611301 81.74014214 32.82053947 80.18125916 C32.76429078 63.73265051 33.41190868 47.36775025 33.92626953 30.90820312 C-2.70373047 30.41320312 -2.70373047 30.41320312 -40.07373047 29.90820312 C-38.42373047 28.25820313 -36.77373047 26.60820313 -35.07373047 24.90820312 C-34.05773516 23.75543921 -33.05523607 22.59047123 -32.07373047 21.40820312 C-28.86911651 17.62987311 -25.62676554 14.06302408 -21.63623047 11.09570312 C-19.07021871 9.15511631 -19.07021871 9.15511631 -17.97060966 6.97650909 C-13.56135243 -0.66284196 -8.22500426 -0.19066204 0 0 Z " fill="#56A3D7" transform="translate(773.07373046875,507.091796875)"/>
<path d="M0 0 C1.20205078 -0.01611328 2.40410156 -0.03222656 3.64257812 -0.04882812 C11.80718533 -0.05333149 17.82549952 0.57106376 24.25 6 C24.79011719 6.43699219 25.33023438 6.87398437 25.88671875 7.32421875 C31.7001131 14.22169596 32.13072977 20.55970688 32.01660156 29.23632812 C32.01718567 30.4079248 32.01776978 31.57952148 32.01837158 32.78662109 C32.01559633 36.63930416 31.98452885 40.49120293 31.953125 44.34375 C31.94566062 47.02275909 31.93977175 49.70172536 31.93597412 52.3807373 C31.92357658 58.69881335 31.89079922 65.01661023 31.85057616 71.33456373 C31.80575751 78.53167071 31.78384615 85.72879151 31.76379442 92.92600346 C31.72206323 107.72166422 31.64875164 122.51702571 31.5625 137.3125 C21.9925 137.3125 12.4225 137.3125 2.5625 137.3125 C2.53744385 133.76411377 2.5123877 130.21572754 2.48657227 126.55981445 C2.40315182 114.84507298 2.31450772 103.13037427 2.22316074 91.41569233 C2.16789696 84.31205684 2.11442631 77.20841633 2.06518555 70.10473633 C2.01767395 63.2512406 1.96515399 56.39779789 1.90955925 49.54436302 C1.88915539 46.92767773 1.87043906 44.31097872 1.85342598 41.69426918 C1.82933858 38.03351504 1.79928962 34.3728553 1.76782227 30.7121582 C1.75918907 29.08404205 1.75918907 29.08404205 1.75038147 27.42303467 C1.74059265 26.42329117 1.73080383 25.42354767 1.72071838 24.39350891 C1.71426583 23.5279453 1.70781328 22.66238169 1.7011652 21.77058887 C1.55644638 19.20518881 1.12489939 16.8168313 0.5625 14.3125 C-0.0975 14.3125 -0.7575 14.3125 -1.4375 14.3125 C-4.0625 11.9375 -4.0625 11.9375 -6.4375 9.3125 C-6.4375 8.6525 -6.4375 7.9925 -6.4375 7.3125 C-11.3875 6.3225 -16.3375 5.3325 -21.4375 4.3125 C-15.88516516 -1.23983484 -7.25855989 -0.01939754 0 0 Z " fill="#5167E2" transform="translate(515.4375,506.6875)"/>
<path d="M0 0 C1.31760818 -0.00116821 2.63521637 -0.00233643 3.99275208 -0.00354004 C7.59440165 -0.00583011 11.1939081 0.04110788 14.79506063 0.09705162 C18.56257267 0.1471559 22.33013711 0.15176867 26.09793091 0.16125488 C33.22743785 0.18609306 40.35596021 0.25170376 47.48503411 0.3320508 C55.60337994 0.42155566 63.72177349 0.46547713 71.8404901 0.50561428 C88.53632575 0.58917385 105.23117189 0.7298327 121.92626953 0.90820312 C121.20453179 5.23148367 120.44917215 7.14700918 116.92626953 9.90820312 C113.67626953 11.15820312 113.67626953 11.15820312 110.92626953 11.90820312 C110.59626953 11.57820312 110.26626953 11.24820313 109.92626953 10.90820312 C109.59626953 11.56820312 109.26626953 12.22820313 108.92626953 12.90820312 C107.93626953 12.57820312 106.94626953 12.24820313 105.92626953 11.90820312 C92.36273009 10.96815584 78.52407865 11.88322524 64.95877075 12.60092163 C63.44277732 12.6804782 61.9265514 12.75572706 60.41012573 12.8265686 C58.26340731 12.9293328 56.1185513 13.05075999 53.97314453 13.17773438 C52.7340332 13.24581299 51.49492188 13.3138916 50.21826172 13.3840332 C45.21536951 14.18062246 41.99212823 16.42657166 38.73876953 20.22070312 C38.0059375 21.05021484 38.0059375 21.05021484 37.25830078 21.89648438 C35.47148649 24.40560681 35.47148649 24.40560681 33.92626953 29.90820312 C9.50626953 29.90820312 -14.91373047 29.90820312 -40.07373047 29.90820312 C-38.42373047 28.25820313 -36.77373047 26.60820313 -35.07373047 24.90820312 C-34.05773516 23.75543921 -33.05523607 22.59047123 -32.07373047 21.40820312 C-28.86911651 17.62987311 -25.62676554 14.06302408 -21.63623047 11.09570312 C-19.07021871 9.15511631 -19.07021871 9.15511631 -17.97060966 6.97650909 C-13.56135243 -0.66284196 -8.22500426 -0.19066204 0 0 Z " fill="#62CFEE" transform="translate(773.07373046875,507.091796875)"/>
<path d="M0 0 C9.9 0 19.8 0 30 0 C30 17.82 30 35.64 30 54 C29.67 54 29.34 54 29 54 C29 36.51 29 19.02 29 1 C20.42 1.33 11.84 1.66 3 2 C2.8545469 6.59995415 2.71125327 11.19989137 2.57275391 15.80004883 C2.52539596 17.35412059 2.47695003 18.9081597 2.42724609 20.4621582 C2.15404897 29.02883938 1.96960034 37.58495804 2 46.15625 C2.03478488 56.47679927 1.91467294 66.79382229 1.78125 77.11328125 C1.77021744 77.96784094 1.75918488 78.82240063 1.74781799 79.70285606 C1.67893832 85.00185641 1.60796602 90.30082732 1.53643799 95.59979248 C1.4751015 100.16612436 1.41536017 104.73247711 1.35546875 109.29882812 C1.23850543 118.1992394 1.11982559 127.09962683 1 136 C0.67 136 0.34 136 0 136 C0 91.12 0 46.24 0 0 Z " fill="#9DEBF7" transform="translate(558,508)"/>
<path d="M0 0 C5.61 0 11.22 0 17 0 C12.02838782 6.01826738 6.70170757 11.66337352 1 17 C0.67 17 0.34 17 0 17 C0 11.39 0 5.78 0 0 Z " fill="#ED7839" transform="translate(732,508)"/>
</svg>
